<svg width="169" height="25" viewBox="0 0 169 25" fill="none" xmlns="http://www.w3.org/2000/svg">
<path d="M13.9979 7.63558C13.9178 6.7634 13.5617 6.08547 12.9294 5.60181C12.3052 5.11021 11.4128 4.86442 10.2523 4.86442C9.48398 4.86442 8.84371 4.96353 8.33149 5.16175C7.81928 5.35998 7.43512 5.63352 7.17901 5.9824C6.9229 6.32334 6.79085 6.71583 6.78284 7.15985C6.76684 7.52458 6.83887 7.8457 6.99893 8.12322C7.167 8.40073 7.40711 8.64653 7.71924 8.86061C8.03937 9.06676 8.42353 9.24913 8.87172 9.40771C9.31991 9.56629 9.82412 9.70504 10.3844 9.82398L12.4972 10.2997C13.7137 10.5614 14.7862 10.9102 15.7146 11.3463C16.651 11.7824 17.4353 12.3018 18.0676 12.9044C18.7078 13.507 19.192 14.2008 19.5202 14.9857C19.8483 15.7707 20.0164 16.6508 20.0244 17.6261C20.0164 19.1643 19.6242 20.4845 18.8479 21.5866C18.0716 22.6887 16.9551 23.5331 15.4985 24.1199C14.0499 24.7066 12.3012 25 10.2523 25C8.19544 25 6.40268 24.6947 4.87404 24.0842C3.3454 23.4737 2.1569 22.546 1.30855 21.3011C0.460193 20.0563 0.02401 18.4824 0 16.5794H5.69039C5.73841 17.3644 5.95049 18.0186 6.32665 18.5419C6.70281 19.0652 7.21903 19.4616 7.8753 19.7312C8.53958 20.0008 9.3079 20.1356 10.1803 20.1356C10.9806 20.1356 11.6609 20.0285 12.2211 19.8145C12.7894 19.6004 13.2255 19.303 13.5297 18.9225C13.8338 18.5419 13.9899 18.1058 13.9979 17.6142C13.9899 17.1543 13.8458 16.7618 13.5657 16.4367C13.2856 16.1037 12.8534 15.8183 12.2691 15.5804C11.6929 15.3346 10.9566 15.1086 10.0602 14.9025L7.49114 14.3078C5.36225 13.8241 3.68555 13.0431 2.46103 11.9648C1.23652 10.8785 0.628263 9.41167 0.636267 7.56423C0.628263 6.05772 1.03643 4.73755 1.86078 3.60371C2.68513 2.46987 3.8256 1.58579 5.28221 0.951476C6.73883 0.317159 8.39952 0 10.2643 0C12.1691 0 13.8218 0.321123 15.2224 0.963368C16.631 1.59768 17.7234 2.48969 18.4998 3.63939C19.2761 4.78909 19.6722 6.12115 19.6883 7.63558H13.9979Z" fill="white"/>
<path d="M30.2891 24.6908H23.9024L32.1979 0.333016H40.1092L48.4047 24.6908H42.018L36.2436 6.47003H36.0515L30.2891 24.6908ZM29.4367 15.1047H42.7863V19.5766H29.4367V15.1047Z" fill="white"/>
<path d="M49.8816 5.11418V0.333016H70.6623V5.11418H63.2072V24.6908H57.3488V5.11418H49.8816Z" fill="white"/>
<path d="M76.269 24.6908V0.333016H86.4253C88.2661 0.333016 89.8547 0.662068 91.1913 1.32017C92.5359 1.97035 93.5723 2.90596 94.3006 4.12702C95.0289 5.34015 95.3931 6.77926 95.3931 8.44434C95.3931 10.1332 95.0209 11.5683 94.2766 12.7498C93.5323 13.9232 92.4758 14.8192 91.1073 15.4377C89.7387 16.0482 88.118 16.3535 86.2452 16.3535H79.8225V11.715H85.1408C86.0371 11.715 86.7855 11.6001 87.3857 11.3701C87.994 11.1323 88.4542 10.7755 88.7663 10.2997C89.0784 9.81605 89.2345 9.19759 89.2345 8.44434C89.2345 7.69109 89.0784 7.06866 88.7663 6.57707C88.4542 6.07755 87.994 5.70488 87.3857 5.45909C86.7775 5.20536 86.0291 5.0785 85.1408 5.0785H82.2115V24.6908H76.269ZM90.1109 13.5585L96.2334 24.6908H89.7507L83.7482 13.5585H90.1109Z" fill="white"/>
<path d="M101.357 24.6908V0.333016H118.5V5.11418H107.299V10.1094H117.624V14.9025H107.299V19.9096H118.5V24.6908H101.357Z" fill="white"/>
<path d="M124.926 24.6908V0.333016H135.082C136.923 0.333016 138.512 0.68982 139.848 1.40343C141.193 2.1091 142.229 3.09626 142.958 4.36489C143.686 5.6256 144.05 7.09245 144.05 8.76546C144.05 10.4464 143.678 11.9172 142.934 13.1779C142.197 14.4307 141.145 15.402 139.776 16.0918C138.408 16.7816 136.783 17.1265 134.902 17.1265H128.636V12.4881H133.798C134.694 12.4881 135.443 12.3335 136.043 12.0243C136.651 11.715 137.111 11.2829 137.423 10.7279C137.736 10.1649 137.892 9.51078 137.892 8.76546C137.892 8.01221 137.736 7.36204 137.423 6.81494C137.111 6.25991 136.651 5.83175 136.043 5.53045C135.435 5.22915 134.686 5.0785 133.798 5.0785H130.869V24.6908H124.926Z" fill="white"/>
<path d="M162.973 7.63558C162.893 6.7634 162.537 6.08547 161.905 5.60181C161.281 5.11021 160.388 4.86442 159.228 4.86442C158.46 4.86442 157.819 4.96353 157.307 5.16175C156.795 5.35998 156.411 5.63352 156.155 5.9824C155.899 6.32334 155.766 6.71583 155.758 7.15985C155.742 7.52458 155.814 7.8457 155.975 8.12322C156.143 8.40073 156.383 8.64653 156.695 8.86061C157.015 9.06676 157.399 9.24913 157.847 9.40771C158.296 9.56629 158.8 9.70504 159.36 9.82398L161.473 10.2997C162.689 10.5614 163.762 10.9102 164.69 11.3463C165.627 11.7824 166.411 12.3018 167.043 12.9044C167.683 13.507 168.168 14.2008 168.496 14.9857C168.824 15.7707 168.992 16.6508 169 17.6261C168.992 19.1643 168.6 20.4845 167.824 21.5866C167.047 22.6887 165.931 23.5331 164.474 24.1199C163.026 24.7066 161.277 25 159.228 25C157.171 25 155.378 24.6947 153.85 24.0842C152.321 23.4737 151.133 22.546 150.284 21.3011C149.436 20.0563 149 18.4824 148.976 16.5794H154.666C154.714 17.3644 154.926 18.0186 155.302 18.5419C155.678 19.0652 156.195 19.4616 156.851 19.7312C157.515 20.0008 158.284 20.1356 159.156 20.1356C159.956 20.1356 160.636 20.0285 161.197 19.8145C161.765 19.6004 162.201 19.303 162.505 18.9225C162.809 18.5419 162.965 18.1058 162.973 17.6142C162.965 17.1543 162.821 16.7618 162.541 16.4367C162.261 16.1037 161.829 15.8183 161.245 15.5804C160.669 15.3346 159.932 15.1086 159.036 14.9025L156.467 14.3078C154.338 13.8241 152.661 13.0431 151.437 11.9648C150.212 10.8785 149.604 9.41167 149.612 7.56423C149.604 6.05772 150.012 4.73755 150.836 3.60371C151.661 2.46987 152.801 1.58579 154.258 0.951476C155.714 0.317159 157.375 0 159.24 0C161.145 0 162.797 0.321123 164.198 0.963368C165.607 1.59768 166.699 2.48969 167.475 3.63939C168.252 4.78909 168.648 6.12115 168.664 7.63558H162.973Z" fill="white"/>
</svg>
